<?xml version="1.0" encoding="utf-8"?>
<!-- Generator: Adobe Illustrator 24.3.0, SVG Export Plug-In . SVG Version: 6.00 Build 0)  -->
<svg version="1.1" id="Capa_1" xmlns="http://www.w3.org/2000/svg" xmlns:xlink="http://www.w3.org/1999/xlink" x="0px" y="0px"
	 width="595.3px" height="841.9px" viewBox="0 0 595.3 841.9" style="enable-background:new 0 0 595.3 841.9;" xml:space="preserve"
	>
<g>
	<path d="M393.9,477.8c0.9,4.7,4.4,8.2,6.9,12.1c7,10.9,11,22.5,9.8,35.7c-1.1,11.2-4.9,15.9-15.7,18.9c-6.6,1.8-10.1,6.1-10.6,13
		c-0.2,3.4,0.5,7.1-2.6,10.1c-6.3,0.9-10.7-5-17.3-5.5c-4.9,9.7-14.1,9.4-23.2,8.6c-11.5-1-21.9-5.3-31.5-12.2
		c-7.1,11.8-16.7,20-30,22.4c-14.7,2.7-23.6-7.5-32.6-17.6c-10.4,5.8-20.4,5-30.4-0.3c-1.3-0.7-2.9-0.6-4.4-0.7
		c-13.4-0.9-16.7-5.7-12.4-18.7c-16.7,2.9-27.7-5.6-36.7-18.1c-1.3-1.8-2.1-4-4.5-4.9c-5.3-2-8.1-6.5-10.7-11.2
		c-3.5-6.6-7.5-12.7-15.9-14.5c0.8-7.8-11-12.5-3-21.7c-12.3-9.6-8.3-19.2-1.8-29.9c6.3-10.4,11.1-15.4,29.7-23.5
		c-9.9-7.3-18-16.1-25.8-25.2c-5-5.8-9-12.1-11.6-19.3c-3.9-10.8-2.7-14.2,7.3-19.1c-6.4-7.2-6.4-7.2-7.8-12.3
		c1.1-3.9,5.5-3.1,7.7-5.2c3.1-14,9.5-25,24.4-28.8c14.2-3.6,26.1,2.1,37.6,10.4c6.5-12.2,18.2-18.4,25.1-29.4
		c5.3-8.5,14.1-14.1,25-14.8c9.1-0.6,17.7-4,27.3-3.4c9.6,0.6,18.9-1.5,27.5-7.8c8.1-5.8,18.5-6.7,28.7-7.7
		c11.1-1.1,20.6-1.6,26.3,10.1c0.5,1.1,2.5,1.5,3.9,2c13.8,5.3,24.6,13.5,28.1,29.3c11.3-0.6,21.1,4.1,30.7,8.8
		c14.2,7,16.4,15.2,8.1,28.6c-0.8,1.3-1.6,2.5-2.8,4.4c10.5,2,18.1,7,19.5,18c1.2,9.9-3.2,18-8.7,25.5c0.6,0.8,0.9,1.4,1.2,1.5
		c19.5,4.4,26.6,13.7,25.4,33.6c-0.3,4.3-0.5,8.6,1.6,12.5c2.9,5.5,2.4,10.2-3.3,13.4c4,10.5,2.6,14.6-7.1,19.6
		c-6.9,3.6-13.8,7.1-20.2,11.6c-6.6,4.6-14.1,4.7-21.7,2C400.5,477.2,397.6,474.6,393.9,477.8z M212.9,453.3
		c-25.7,6.3-40.3,22.7-46.8,46.9c-4.8,17.8,0.3,28.2,16.7,36.4c6.6,3.3,12.3,3.8,17.6-2.4c2.6-3.1,5.9-4.8,10-1.3
		c1.1,8-8.8,12.3-7.3,20.4c2,3.4,5.3,3.6,8.6,3.7c3.6,0.1,7.1,0.6,10.1,2.5c5.9,3.8,11.9,3.3,18.1,1c10.2-3.8,18.5-10,24.7-19
		c7.9-11.4,8.1-21.3,0.1-33.7c-9.4-3.2-18.1-7.9-25-15.8c-8.5-9.8-8.5-13,0.6-21.5C233.3,461.3,220.2,461.8,212.9,453.3z
		 M283.3,511.7c8.4,14.1,15.7,27.8,26.3,39.4c12.9,13.9,28.8,16.9,46.3,13.3c2.2-2.9,2-6.5,5.9-8.1c5.8-0.9,10.3,4.9,16.6,4.8
		c0.3-0.7,0.8-1.4,0.8-2.1c0.5-10.9,5.2-18.1,16.8-19.5c4.6-0.6,6.5-4.1,7.8-8.2c6.1-19.8-4-34.7-15-50.8c-13.9,12.2-29.5,11-46,7.6
		c0.5,3.7,1.1,6.1,1.2,8.5c0.5,8.3-2.4,15-9.9,18.8c-13.8,6.8-27.8,8.6-41.5-0.4C290.1,513.4,287.8,511.3,283.3,511.7z M158.1,514
		c4.3-31,18.2-54.1,49.2-65c-7.3-6.1-14.9-8.7-22.4-11.4c-6.2-2.2-12.6-3.7-17.6-8.3c-4.8-4.4-9.7-3.9-15.4-1.8
		c-14.6,5.3-21.4,17.4-27.2,30.5c1.4,7.8,13.2,12.5,5.9,22.1C139.4,492.3,150.8,501.4,158.1,514z M162.2,415.2
		c-5.2-10.9-14.3-20.8-4.4-33.2c-5.8-12.7-5.8-21.6-0.1-31.1c5.1-8.5,10.4-9.4,17.5-2.6c3.1,3,5.7,6.7,9.8,11.6
		c-0.6-12.7-0.2-23.6,2-33.8c-9.4-9.9-23.7-14.2-35.7-11.3c-8.9,2.2-18,11.1-18.6,19.8c-0.4,5.6-2,9.4-7.7,11.3
		c4.4,6.8,13.4,9,14,18.4c-5.6,0.3-11.1-4.1-17.4,1.3C127.5,388.1,143.3,402.9,162.2,415.2z M399.8,470.4c8.3,5.4,16.4,6.2,24.1,0.5
		c5.7-4.3,11.7-7.7,18.2-10.5c3.5-1.5,7.5-3.3,7.5-9c-6.9-5.2-16-5.1-24.5-7.7c7.9-11.6,18.8-1.5,28.5-5.3c-5.8-8.1-3.8-16.5-4-24.7
		c-0.3-11.6-8.9-22.3-18-23c-12.7-0.9-33.4,13.3-37.4,26c2.5-0.2,5-0.6,7.4-0.5c10.8,0.5,16.7,8.9,11.4,18.1
		C406.3,445.7,406,458.9,399.8,470.4z M369.2,312.1c22.2,24.9,33.4,53.5,29.1,88.7c6.1-4.5,10.4-7.6,14.5-10.8
		c3.2-2.5,6.3-5,9.2-7.8c5.7-5.6,10-12,9.6-20.5c-0.4-11.2-9.7-17.6-20.3-14.2c-2.4,0.8-4.6,3.4-8.2,0.7
		c4.8-6.1,10.5-11.5,14.3-18.2c3.9-6.8,3.2-11.2-3.3-15.4c-7.2-4.7-15.1-8.1-23.4-10.3C381.8,301.8,374.5,304.4,369.2,312.1z
		 M291,272.5c12,6,16.8,17.2,23.3,27.3c11.6-7.1,22-7.7,32.3,1.6c11.6,10.6,19,9.5,28.8-3.4c-1.1-8.3-7.1-13.3-13.1-18.4
		c-8.2-7-21.4-7.1-24.9-18.9C321.2,263.3,304.9,261.1,291,272.5z M278.1,429.6c-5.9,2-11,1.6-16.3,0.2c-11.7-3-22.2,1.6-27.3,11.6
		c0.2,0.5,0.2,1,0.5,1.4c1.7,2.2,3.7,4.1,5.2,6.4c10,14.6,24.8,19.6,41.5,20.7c4.6,0.3,9.1-0.1,12.4-3.9c3.1-3.5,7-5.6,11.2-7.4
		c2.8-1.3,6.3-2,7.5-6.3c-5.1-5.4-10.8-10.7-18.3-11.8C287.2,439.4,281.8,436.7,278.1,429.6z M167.2,349c-4.6,2.7-7.2,6.2-8.4,10.8
		c-2.6,9.4,1.6,17,7.2,24.6c-5.4,2.5-9.1,5.6-7,11.7c7,21,20.5,35.6,42.6,42.5c-1.7-6.1-4.1-11.5-4.7-17c-2-17.7-9.7-33.6-14.3-50.5
		C180.2,362.4,176.4,354,167.2,349z M278.4,483.8c-0.3-5.2,4-5.4,4.4-8.7c-8.8,0.5-16.9-1.8-24.4-4.8c-3.6,1.9-6.6,3.6-9.8,5.2
		c-3.2,1.7-7.6,0.8-10,4.4c4.7,12.4,12.2,17.8,24.9,20c13.9,2.4,28.5,0.1,41.5,8.8c5.9,3.9,13.3,1.2,18.6-4
		c6.1-5.9,6.5-12.6,0.5-19.2C308.9,493,294.6,477.9,278.4,483.8z M305.3,554c-13.3-12.3-17.5-30.9-31.6-43.1
		c7.6,23.2-5.8,37.3-21.6,50.8c7.3,8,13.9,16.5,25.9,14.2C290.4,573.4,300.1,567,305.3,554z M381.5,336.4
		c-6.3-9-10.3-18.7-19.9-21.6c-7.5-2.3-13.4-5.9-19.3-10.8c-11.3-9.5-26.6-4.4-32.1,11.4c18.3,5.6,32.2,19,48.1,29.3
		C364.5,338.7,371.5,335.1,381.5,336.4z M304.5,313.1c1.8-3.5,3.5-6.6,5.3-10c-3.2-8.3-8.6-15.1-14.5-21.7c-2.6-3-6.3-4.5-10.1-4.5
		c-17.1,0.1-34.1,1.1-50.7,5.1c-5.8,1.4-11.6,4.1-15,11c10.7-4.7,21.1-5.5,31.7-3.7c10.4,1.7,19.7,5,19.8,18.7
		c6.2-2,11.6-3.7,17.6-2.9C294.8,305.9,297.9,312,304.5,313.1z M189.9,348.8c5.9-6.1,7.2-12.2,7-18.9c-0.1-4.5-0.2-9.6,5.3-11.2
		c5.7-1.7,9.5,1.7,12.6,6c2.4,3.4,4.7,6.8,7.3,10.6c10.7-15.7,23.5-27,42.3-27.6c2.2-4.5-0.2-6.7-2.3-8.8c-9.7-9.7-36.8-7-44,4.6
		c-2.7,4.3-5.7,6.7-10.9,6.2c-4.6-0.4-7.6,2.2-9.8,5.8C191.4,325.3,189.2,335.9,189.9,348.8z M292.8,476.2
		c19,10.8,36.4,4.8,53.2-4.1c10.7-5.7,14.9-15.8,11.8-25.6c-6-0.4-11.1,2.2-16.2,4.9c-6.5,3.5-13,6.8-20.4,1.8
		C313.3,463.3,298.2,463.5,292.8,476.2z M211.7,366.1c3.5-2.1,5.9,0.9,8.5,0.3c0.3-20-2.3-40.4-17.5-42.3c-0.9,7.1-1.1,14.4-4.2,21
		c-6.5,14-5.1,28.4-1.4,42.6c2.2,8.5,8.6,16.5,15,21C206.2,381.6,206.2,375.1,211.7,366.1z M355,473.3c5.7-2.3,9.5-3.6,13.1-5.4
		c15.3-7.5,29.4-16.6,38.4-31.7c2.5-4.2,4.6-8.5,1.3-13.1c-2-1.8-4.3-2.1-6.6-2.2c-12.1-0.3-35.1,17.6-37,29.8
		C363,458.4,360.1,465.1,355,473.3z M315.4,424.5c1,2.2,0.6,4.6,3.1,6.5c10.1-5,17.2,1.5,24,7.5c13.9-6.5,22.6-25.8,17.3-38.2
		c-7.3-3.2-14.9,3.2-22-0.7C332.6,410.4,323.2,416.1,315.4,424.5z M281.8,421.3c3.7-15.2-14.4-19.5-15.5-32.7c-3,2.6-1.3,8-6.3,8.1
		c-10.3-7.9-15.4-7.1-20.7,3.3c8.5,6,20.1,9.4,19.1,22.7C267.5,426.4,267.5,426.4,281.8,421.3z M310.4,384.7
		c0.5,7.9-5.7,12-8.8,17.8c-3,5.6-10.1,9.4-8.6,17.7c6.6-0.6,13-1.8,18.8-0.2c6.6-4.2,10-9.9,12.6-16.3
		C329.7,390.4,326.5,385.4,310.4,384.7z M360.9,349.3c7.9,11.7,7.4,26.2,12.8,40.5c4-6.4,7.2-11.7,10.6-17c1.6-2.5,2.5-5.2,1.4-7.9
		c-3.1-7.4-5.5-15-6.6-23.1C371.4,340.2,366.7,343.8,360.9,349.3z M225.4,373.5c11.7-12.5,23-24.4,35-37.2c0-3.1,1.6-7.2,3.3-11.6
		C241.3,327.7,224.9,348.8,225.4,373.5z M216.1,369.5c-8.3,20.5,3.7,56.9,19.5,61.9c1.2-4.9-1.5-8.8-3.2-12.6
		c-3.2-7.1-6.6-14-6.2-22.1C226.5,386.6,218.4,380.2,216.1,369.5z M348.5,482.3c27.1,5.9,50.6-7.4,50.9-28.8
		C384.7,467.8,366.4,474.6,348.5,482.3z M281.9,339.5c-11.4,0.7-21.7,0.8-27.2,9c-4.6,6.8-9.6,12.6-16,17.5
		c-1.8,1.4-3.5,3.2-4.1,6.7c10.7-5.9,22.2-7.7,31.7-15C265.8,348.3,275.6,346.8,281.9,339.5z M355.3,393.7
		c5.1-15.7,0.6-31.8-10.3-36.9c-1.6,4.6-0.1,10.1-4.6,14c6.5,7.3,5.1,16,4.9,24.3C349.3,395.6,352.1,394.6,355.3,393.7z
		 M302.2,345.6c10.6-1.9,18.5,6.7,28.9,7c-11.2-16.8-32.8-24.5-52.2-18.6C288.2,335.2,296.3,338.1,302.2,345.6z M314.6,370.7
		c8.4,2.1,9.5,11.8,16.5,15.9c4-1.9,6.7-4.3,7.9-8.3c-3.9-6.1-3.3-16-14.1-16.3C318.4,364.6,318.4,364.6,314.6,370.7z M231.8,397.7
		c16.8-11.2,16.8-11.2,25.5-12c1.9-4.6-3.3-6.3-4-9.8c-0.3-1.7,2.2-3,0.5-4.8C235.8,375,230.1,381.8,231.8,397.7z M361.1,394.7
		c10.8,6.9,3.9,16.2,3.4,24.3c-0.5,9-6.2,15.8-13.3,21.3c4.8-0.3,7.9-2.6,9.8-6.3c3.9-7.3,7.7-14.7,11.4-22.1
		c3-6.2,4.8-12.3-2.4-17.3c-2.6-1.8-2.6-5.3-3.5-8.2c-1-3.3-1.4-7-4.2-10.9C363.3,382.6,362.7,388.3,361.1,394.7z M214,420.3
		c-4.4-2.1-8-3.8-11.7-5.6c-0.9,17.4,11.2,37.4,24.2,39.3C217.8,444.3,214.3,433,214,420.3z M317.2,449.1c7.8-1.9,16.7,6.2,22.6-3.9
		c-7.4-12.8-13.1-13.6-30-4.1C312.2,443.7,314.6,446.2,317.2,449.1z M252.4,423.2c0.8-3.1,0.5-5.8-0.9-8.9c-5.8-2.9-9.9-10-18.6-9.6
		c2.7,7.8,4.4,15.3,8.7,22C245.5,425.4,249,424.3,252.4,423.2z M389,407.3c6.1-13.2,5.3-27.1,4.9-42.4
		C383.9,379.2,389.5,393.4,389,407.3z M267.6,379.7c4.2-1.1,8,0.5,12.1,0.6c1.7-3.6,1-6.8-2-8.6c-5.2-3.1-10.8-6-17.3-2.4
		C260.7,374.6,266.3,375.3,267.6,379.7z M220.4,427.6c1.9,14.6,15.7,33.7,26.7,36.6c-6.8-7.6-12.9-14.5-18.3-20.5
		c-1.3-3.5,1.5-5.1,1.1-7.6C227.1,433.6,224.2,431,220.4,427.6z M321.5,514.3c8.2-1.7,14-4.1,16.6-11c2.1-5.6,0.9-10.6-3.7-15.3
		C335.1,498.1,332.5,503.5,321.5,514.3z M252.7,322c-17.1,0.9-28.4,12.4-27.2,27.1C230.3,336.5,238.9,327.6,252.7,322z M270.7,365.2
		c6.6-3.4,10.1-8.6,15.4-9.6c0-4.6-2.9-5.5-5.2-7.1c-3.4,1.6-6.8,3.2-9.4,6.4C271.3,357.4,271.1,360.1,270.7,365.2z M318.1,324.6
		c-13.3-8.1-25.7-9.5-35.5-3C296.1,317.4,305.6,328.5,318.1,324.6z M333.8,335.6c7.8,7.7,13.9,17.3,25.4,22.6
		C354.2,345.6,342.9,342,333.8,335.6z M382.2,388.3c-4.7,4.8-1.9,9.1-1,13.3c0.9,4.6-1.6,8.2-3.5,12c-1.8,3.6-3.8,7-5.7,10.5
		C383.6,414.7,384.6,402.4,382.2,388.3z M308.3,426.1c-3.3,4.1-8.1,5.8-13,8.1c3.5,2.3,6.5,3.6,10,4.2c2.1-1.9,4.8-3.3,6.3-6.1
		C312.3,429.7,311.4,427.9,308.3,426.1z M283.7,388.7c-1.2,3.1-3.3,5.4-0.9,8.3c2.6,2.1,5.6,2.5,9.4,1.8
		C290,394.8,290.8,389,283.7,388.7z M289.6,311.2c-8.3-2.9-14.7,0.7-20.7,6C276.4,317.6,282.5,312.7,289.6,311.2z M299.6,349.8
		c-4.3-3.9-7-7.5-11.5-8.7c-2.5,0.8-3.2,2.3-3,4.9C289.3,347.4,292.9,351.2,299.6,349.8z M283.1,402.5c1.7,5.2,3,9.2,4.3,13.4
		c1.7-3.4,3.3-6.5,5-10C289.3,404.8,286.8,403.9,283.1,402.5z M298.1,356.4c5.2,4.7,11,2.1,15.7,3.7
		C309.4,357.8,305.1,354.5,298.1,356.4z M340.1,387c-2.6,2.4-6.3,2.8-8.2,6.8c2.9,0.2,5.1,0.3,7.2,0.5
		C339.9,391.9,340.9,389.9,340.1,387z M314.1,331.2c4.7,2.7,8.1,4.7,11.6,6.7C323.5,333.9,321.4,329.5,314.1,331.2z M299.3,365.7
		c4.1,4.2,4.1,4.2,7.1-0.6C304,364.8,301.6,363.6,299.3,365.7z M276,395.7c-1.1-4.5-1.8-7.7-2.5-10.8
		C272.1,388.6,271.8,391.9,276,395.7z M281.1,367.8c4.7-0.1,5.5-2.8,7.3-6.1C284.1,362.1,281.3,362.7,281.1,367.8z M341,353.1
		c-1.5-4.6-4.3-6.7-7.4-8.5C335.8,347.2,336.1,351.5,341,353.1z M286.9,383.4c2.2,0.6,4.4,1.1,7.1,1.8
		C292.7,379.5,289.5,382.1,286.9,383.4z M289.6,427.3c3.2,0.3,6.4,1,9.1-1.8C295.2,424.4,292.4,425.9,289.6,427.3z M276.1,328
		c-0.1-0.4-0.1-0.8-0.2-1.2c-2.4,0.7-4.8,1.3-7.3,2c0.2,0.4,0.3,0.9,0.5,1.3C271.4,329.5,273.8,328.7,276.1,328z M317.4,379.2
		c-2.1-2.6-3.9-3.6-6.5-4.1C311.6,378.8,313.8,379.2,317.4,379.2z M300.3,396.2c-0.8-2.9-2.1-4-4.2-4.7
		C295.9,394.1,295.9,396.2,300.3,396.2z M253.9,315.3c2,0.6,3.8,0.8,5.2-1.2C257,313,255.4,313.5,253.9,315.3z M305.7,514.7
		c-1.6-0.6-3-1.1-4.3-1.7C302.4,514.5,303.5,515.9,305.7,514.7z"/>
</g>
</svg>
