<?xml version="1.0" encoding="utf-8"?>
<!-- Generator: Adobe Illustrator 24.3.0, SVG Export Plug-In . SVG Version: 6.00 Build 0)  -->
<svg version="1.1" id="Capa_1" xmlns="http://www.w3.org/2000/svg" xmlns:xlink="http://www.w3.org/1999/xlink" x="0px" y="0px"
	 width="595.3px" height="841.9px" viewBox="0 0 595.3 841.9" style="enable-background:new 0 0 595.3 841.9;" xml:space="preserve"
	>
<g>
	<path d="M229,529.8c-26.3,0-52.6,0-79,0c-0.3,0-0.6-0.1-0.9-0.1c-7.6-0.1-15.1,0-22.7-0.2c-2.6-0.1-5.3,0-7.9-0.2
		c-3.2-0.2-3.2-0.3-3.2-3.5c0-33.6,0-67.2,0.1-100.8c0-12.9,0-25.8,0-38.7c0-22.5,0-45,0-67.5c0-1.6,0.1-3.2,0.7-4.7
		c0.3-0.8,0.8-1.1,1.7-1.2c5.3-0.1,10.6-0.3,15.9-0.4c7.2-0.1,14.4-0.1,21.6-0.1c0.5,0,1,0.1,1.4-0.1c31.1,0,62.3,0,93.4,0
		c1,0,1.1,0.3,1.1,1.2c0,71.7,0,143.4,0,215.1c-0.3,0.9-1,1-1.8,1c-4.6,0.1-9.1,0.2-13.7,0.3C233.5,529.7,231.3,529.5,229,529.8z
		 M185.4,328.7c-0.9,1.2-0.7,2.4-0.8,3.5c-0.1,1.5-0.1,3-1,4.3c-0.4,0.7-0.8,0.7-1.2,0c-1.1-1.6-1.2-3.4-0.8-5.2
		c0.4-1.6,0.8-3.2,1.3-4.7c0.2-0.7,0-1.1-0.5-1.5c-2.6-2.2-5.2-4.4-7.8-6.6c-0.5-0.5-1.2-0.7-1.9-0.7c-1.4-0.1-2.9-0.2-4.3-0.2
		c-8.1-0.1-16.2-0.3-24.3-0.2c-7.2,0.2-14.5,0.2-21.7,0.8c-1.1,0.1-1.5,0.4-1.5,1.6c0,11.8,0,23.7,0,35.5c-0.1,17.6,0,35.2-0.1,52.8
		c-0.1,18.7,0,37.4,0,56.2c0,1.2-0.1,2.3,0,3.5c0,0.5,0.2,1.1,0.7,1.3c0.5,0.2,0.8-0.4,1.1-0.7c6.3-6,12.6-12.1,19-18.1
		c7.3-6.9,15.3-13.2,23.2-19.4c2.1-1.7,3.7-3.7,4.6-6.3c1.1-3.1,2.6-5.9,4.7-8.4c1.4-1.6,1.4-1.6-0.2-3c-4.9-4.6-8.6-10.1-12.2-15.7
		c-2.6-4-2.3-8.7-1.2-13.1c1.8-7.1,4.1-14,6.2-21c0.4-1.4,0.3-2.5-0.3-3.7c-1.8-3.8-1.5-5.4,1.5-8.3c0.6-0.6,1.2-0.8,2-0.9
		c1.1-0.1,2.1-0.3,3.2-0.4c2.4-0.3,4.9-0.4,7.2-1.3c0.6-0.3,1-0.6,1.2-1.2c0.6-1.7,1.2-3.3,1.8-5c0.2-0.4,0.3-0.8,0.8-0.4
		c0.8,0.7,1,0.2,1.2-0.5C186.6,337.3,186.3,333.1,185.4,328.7z M245.5,422.2c0-4.1,0-8.2,0-12.3c0-1.7-0.4-1.9-2-1.3
		c-8.3,3.4-16.6,6.8-25,10.1c-1,0.4-1.8,0.9-2.2,1.9c-0.4,1-0.9,1-1.8,1c-4.3-0.3-7.6,3.3-6.9,7.5c0.1,0.5,0.1,1,0.2,1.5
		c1.3,6.9,2.2,13.8,2.7,20.8c0.5,7.5,0.6,14.9,0,22.4c-0.2,2.7-0.3,5.5-1,8.2c-0.5,2-1.4,3.8-3.8,4.1c-0.9,0.1-1.4,0.7-1.5,1.7
		c-0.2,1.9-0.7,3.7-0.9,5.5c-0.1,1.1-0.6,1.6-1.7,1.7c-1.2,0.2-2.4,0.4-3.6,0.7c-1.6,0.4-2.7,1.2-3.1,2.9c-0.2,1-0.4,2-0.5,3.1
		c-0.5,3.4-2.2,6-4.9,8.1c-1.3,1-2.5,2-3.1,3.6c-0.4,0.8-0.3,1.5,0.3,2.3c3.2,4.4,7.6,6.3,13,6.1c2.8-0.1,5.5-0.1,8.2,0.7
		c3.1,0.9,6.2,1,9.3-0.4c0.4-0.2,0.8-0.1,1.2,0c8.9,2.3,17.7,1.3,26.4-1.2c0.7-0.2,0.9-0.5,1-1.2c0.3-3.5,0.2-7.1,0.3-10.7
		c0.1-8.2,0.2-16.3,0.2-24.5C246.1,463.8,246.1,443,245.5,422.2z M221.3,348c-1.3-0.2-2.1-0.6-3-1.1c-3.2-1.7-6.3-3.5-9.5-5.1
		c-2.8-1.4-3-2.4-4.3,1.9c-0.2,0.6-0.2,1.4-0.9,1.6c-1.6,0.5-2.6,1.8-3.7,3c-0.7,0.7-1.5,1.2-2.6,0.9c-0.5-0.1-0.9,0-1.1,0.5
		c-0.6,1.2,0,4.4,1,5.2c6,5,10.2,11.2,12.6,18.6c0.3,1,0.6,2,0.2,3c-0.7,1.7-0.8,3.4-0.8,5.2c0,3.3,0.1,6.7-0.7,9.9
		c-0.7,3.1-1.7,6.1-2.6,9.1c-0.2,0.8-0.1,1.4,0.5,1.9c0.7,0.6,1.4,0.9,2.3,0.5c1.1-0.6,2.5-1.1,2.4-2.8c0-0.7-0.1-1.5,0.8-1.7
		c0.8-0.2,1.1,0.5,1.3,1.1c0.7,1.4,0.7,1.4,2,0.6c9.7-5.8,19.3-11.6,29.1-17.3c1.1-0.7,1.6-1.4,1.6-2.7c0.2-6.5,0.3-12.9,0.3-19.4
		c0-8.9,0-17.7-0.2-26.6c-0.1-4.9-0.2-9.7-0.6-14.6c-0.1-1.8-0.1-1.8-1.9-1.8c-17,0-33.9,0-50.9,0c-0.5,0-0.9-0.1-1.5,0.1
		c0.7,0.4,1.4,0.5,2,0.7c3.1,0.7,6.4,0.9,9.5,1.7c1.1,0.3,1.9,0.9,2.5,1.8c4.7,7.7,9.5,15.4,14.3,23.2
		C220.2,346.1,220.7,346.9,221.3,348z M165.3,440.7c-1,0.4-1.7,0.6-2.3,0.9c-0.7,0.3-1.5,0.4-2.2,0.4c-0.7,0-1.3,0.2-1.8,0.7
		c-13.2,10.6-25.5,22.1-37.3,34.2c-0.4,0.4-0.6,0.8-0.6,1.4c0,12.2,0,24.5,0,36.7c0,0.6,0.2,1,0.7,1.4c2.1,1.9,4.5,3.1,7.2,3.9
		c2.7,0.8,5.5,1.3,8.2,2.1c1.1,0.3,1.7,0.3,2.2-0.8c0.3-0.7,0.7-0.8,1.4-0.6c3.4,1.2,6.8,1,10.2-0.4c1.1-0.4,2.2-0.6,3.3-0.6
		c2.2,0.1,4.4,0,6.6,0.5c0.7,0.1,1.5,0.2,2.1-0.6c1.7-2.2,2.5-4.6,2-7.4c-0.4-2.2-1.4-4.3-2.3-6.3c-1.1-2.5-1.2-2.5-3.5-0.9
		c-1.2,0.8-2.3,1.6-3.5,2.4c-0.8,0.5-1.2,0.2-1.2-0.7c0-0.6,0.1-1.2,0.2-1.8c0.1-0.6-0.1-1.2-0.5-1.6c-0.6-0.5-1,0.1-1.4,0.3
		c-3.1,1.7-5.8,3.9-8.6,6.1c-0.7,0.6-1.4,1.3-2.6,1.8C148,487.4,156.2,464.1,165.3,440.7z M246.2,396c0-3.2-0.2-5.6-1-7.9
		c-0.2-0.6-0.5-0.8-1.1-0.4c-8.4,4.9-16.9,9.6-25.1,14.8c-1.5,1-2.9,1.8-1.9,3.9c0,0,0,0.1,0,0.1c0,0.6-0.1,1.1-0.7,1.4
		c-0.6,0.2-0.9-0.2-1.2-0.6c-0.3-0.4-0.6-0.8-1.2-0.6c-1.2,0.4-2.3,0.8-3.3,1.7c-0.6,0.5-0.8,1-0.5,1.9c0.6,1.5,1.3,3,1.4,4.7
		c0,0.3-0.1,0.8,0.4,0.9c0.4,0.1,0.7-0.1,0.9-0.4c0.5-0.6,0.9-0.7,1.4,0c0.5,0.6,1.2,0.6,1.9,0.3c0.7-0.3,1.3-0.6,2-0.8
		c8.8-3.6,17.6-7.3,26.4-11c0.9-0.4,1.2-0.8,1.2-1.7C245.9,399.8,246.1,397.5,246.2,396z M175.9,522.1c-0.2-3.5,1.2-6.5,1.9-10.1
		c-1.7,1.5-3.1,2.8-3.9,4.7C173.1,518.8,173.8,520.8,175.9,522.1z"/>
</g>
<g>
	<path d="M269.4,312.2c45,0,90.1,0,135.1,0c0.1,3.2,0.2,6.5,0.2,9.7c0.1,12.9,0.2,25.7,0.3,38.6c0.1,12,0.1,24,0.1,36
		c0,33.8,0,67.5,0,101.3c0,9.8-0.1,19.6-0.2,29.5c0,1.2-0.4,1.5-1.5,1.5c-5.5,0.1-11,0.3-16.5,0.4c-12.8,0.1-25.6,0.2-38.4,0.2
		c-7.4,0-14.8,0-22.3-0.1c-13.4-0.1-26.8,0-40.2-0.3c-5-0.1-10-0.3-15-0.4c-0.9,0-1.3-0.3-1.3-1.3c0-7.3-0.1-14.5-0.1-21.8
		c0-9.1-0.1-18.3-0.1-27.4c0-42.7,0-85.5,0-128.2C269.4,337.3,269.4,324.8,269.4,312.2z M373.1,317.2
		C373.1,317.3,373.1,317.3,373.1,317.2c-8.1,0.1-16.2,0.1-24.3,0.1c-4.3,0-7.3,1.9-8.9,6c-0.2,0.5-0.5,1-0.6,1.5
		c-0.2,0.5-0.5,0.9,0,1.4c0.5,0.4,1,0.7,1.6,0.4c0.3-0.1,0.6-0.2,0.9-0.3c1.7-0.6,2.1-0.5,2.8,1.1c0.6,1.5,1.5,2.8,2.5,4
		c2.9,3.5,3.9,7.5,2.4,12c-0.2,0.7-0.1,1.2,0.3,1.8c1.1,1.5,2.1,3.1,3.2,4.7c2.1,3.2,4,6.4,4.9,10.2c0.1,0.6,0.5,0.9,1,1.1
		c1.3,0.6,2.6,1.1,3.7,2c2.3,1.7,3,3.7,2.2,6.4c-0.4,1.5-0.4,3.1-0.3,4.6c0.2,1.9,0.5,3.8,0.6,5.7c0.3,4.6-0.3,9.1-0.6,13.6
		c-0.2,2.9-0.8,5.7-2.4,8.3c-1.2,2-2.6,3.2-5.1,2.8c-2-0.3-4-0.3-6,0.2c-0.5,0.1-0.9,0.3-1.2,0.8c-1.2,2.1-0.7,4.8,1.3,6.3
		c0.9,0.7,2,1.2,3,1.7c2.6,1.1,5.2,2.2,7.8,3.4c0.9,0.4,1.5,1,1.1,2.1c-0.4,1.1-1.3,0.9-2.1,0.7c-0.9-0.2-1.7-0.6-2.5-0.8
		c-0.8-0.2-1.5,0.2-1.9,0.9c-0.5,0.6,0,1.1,0.3,1.5c0.5,0.6,1,1.2,1.6,1.8c0.5,0.5,1.1,1.1,1.4,1.8c0.4,0.7,0.4,1.4-0.2,2
		c-0.6,0.6-1.3,0.6-2,0.1c-0.7-0.4-1.3-1-1.9-1.4c-1-0.7-1.5-0.4-1.6,0.8c0,0.4,0,0.8,0.1,1.2c0.3,1.6,0.7,3.1,1.1,4.7
		c1.2,4.7,2.9,9.4,3.6,14.3c0.1,0.7,0.4,1.1,1,1.4c3.4,1.6,6.7,3.1,10.1,4.7c9.4,4.4,18.8,8.9,28.2,13.3c0.9,0.4,1.2,0.3,1.4-0.7
		c0.4-1.8,0.3-3.6,0.3-5.5c0-8.8,0-17.6,0.1-26.4c0.1-33.6,0-67.3,0-100.9c0-3.9-0.1-7.7,0-11.6c0-0.8-0.1-1.6-0.4-2.4
		c-0.3-1-0.9-1.4-2-1.4C389.4,317.3,381.3,317.2,373.1,317.2z M274.6,500.4c-0.3,5.2-0.3,10.3-0.1,15.4c0.1,1.5,1,2.1,2.5,1.4
		c2.2-1.1,3.1-0.5,4.5,1.1c0.8,0.9,1.5,1.9,2.4,2.6c1.9,1.7,3.3,1.7,5.3,0c0.7-0.6,1.4-1.4,2.1-2c1.6-1.3,2.3-1.1,2.9,0.8
		c0.6,2,2.2,2.4,4,2c1.6-0.3,2.7-1.3,3.9-2.3c0.5-0.5,1-0.7,1.7-0.5c2.1,0.5,4.2,0.7,6.4,0.9c8.7,0.6,16.4-1.8,22.9-7.7
		c0.5-0.5,0.8-1,0.9-1.6c0.5-2.5,0.1-4.8-0.6-7.2c-0.7-2.2-1.2-4.4-1.3-6.7c-0.2-4.1-0.5-8.2-0.8-12.3c0-0.5-0.1-1-0.5-1.4
		c-4-4.5-5-9.8-3.7-15.5c0.2-0.8,0-1.2-0.7-1.5c-2.7-1.4-4.4-3.7-5.3-6.6c-0.6-1.9-0.7-3.9-0.9-5.8c-0.2-2-1.3-3-3.1-3.4
		c-1-0.2-2.1-0.3-3-0.8c-0.6-0.3-1.3-0.6-1.3-1.4c0.1-4.2-0.5-8.5,0.9-12.6c0.7-2,0.1-3.4-1.1-4.8c-0.3-0.4-0.7-0.8-1-1.2
		c-1.3-1.4-2.3-2.9-0.7-4.8c0.6-0.8,0.5-1.6-0.5-2.2c-0.8-0.5-1.5-1.2-2.3-1.8c-2.3-1.9-4.6-3.8-7.4-5.1c-0.4-0.2-0.8-0.7-1.2,0
		c-0.1,0.2-0.4,0.2-0.6-0.1c-0.2-0.2-0.1-0.4,0.1-0.6c0.9-0.7,0.4-1.4,0-2c-0.3-0.5-0.8-0.9-1.3-1.2c-6.9-5.2-13.9-10.2-20.7-15.5
		c-0.4-0.3-0.8-0.7-1.4-0.5c-0.6,0.2-0.6,0.9-0.7,1.4c-0.1,0.4,0,0.9,0,1.3c0,8.7,0,17.5,0,26.2c-0.1,21.8,0.2,43.5-0.2,65.3
		C274.5,493.3,274.6,496.9,274.6,500.4z M275,354.3c0,11.6,0,23.2,0,34.7c0,1,0.3,1.6,1.1,2.2c7.7,5.8,15.4,11.5,23.1,17.4
		c1.1,0.8,2,1.2,3.2,0.5c0.8-0.4,1.4-0.2,1.7,0.8c0.4,1.1,1,2.1,1.9,2.9c2.3,2.3,5.1,4,7.9,5.8c0.8,0.5,2.3,0.2,3-0.5
		c0.8-0.8,0.5-1.7,0.1-2.5c-0.3-0.5-0.6-1-1-1.5c-0.6-1-0.7-1.9,0-3c1.2-1.8,2.3-3.7,3.2-5.6c1.2-2.7,1.7-5.5,1-8.4
		c-0.3-1.2-0.7-2-2.1-2.3c-1-0.2-1.3-0.9-1.1-1.9c0.3-1.5,0.5-3,0.5-4.5c0-3.6,0.9-7,2.6-10.2c1.3-2.5,2.8-4.9,4.2-7.4
		c0.8-1.4,1.5-2.9,0.9-4.5c-0.3-0.8,0-1.2,0.6-1.7c1.9-1.3,3.7-2.7,5.5-4c0.4-0.3,0.7-0.5,0.8-1c0-1,0.2-1.9,0-2.9
		c-0.2-1.1-0.7-1.8-1.8-1.9c-1-0.1-2.1-0.3-3.1-0.4c-1.1-0.2-1.6-0.7-1.6-1.9c0-1.6-0.3-3.2-0.4-4.8c-0.1-1-0.4-1.9-1.1-2.6
		c-0.9-0.8-0.7-1.6,0-2.4c0.3-0.3,0.6-0.6,0.8-0.9c1.7-1.9,1.5-2.8-0.5-3.4c-0.7-0.2-1.3-0.8-0.9-1.7c1.7-4.2,4.1-7.7,8.9-8.7
		c1.3-0.3,2.1-0.9,2.8-1.9c0.6-0.9,1-1.8,1.3-2.8c0.3-1.6,0.7-3.1,1-4.7c0.3-1.3,0.4-1.3-1-1.3c-8.5-0.1-17.1-0.3-25.6-0.3
		c-7.7,0-15.3,0.1-23,0.2c-3.5,0-7,0.1-10.5,0.2c-1.9,0-2.4,0.6-2.4,2.5C275,331.2,275,342.8,275,354.3z M387.7,514.5
		c-0.3,0.9-0.7,1.7-0.7,2.5c0,1.6,0.9,2.5,2,3.3c0.9,0.6,1.5-0.1,2.2-0.4c2.8-1.1,5.2-2.8,7.5-4.7c0.6-0.5,0.8-1,0.8-1.7
		c0-4.2,0-8.3,0-12.5c0-9.8,0-19.6,0-29.4c0-0.9-0.3-1.4-1.1-1.6c-1.4-0.4-2.7-0.9-4.1-1.4c-12.5-4.4-24.6-9.7-36.5-15.5
		c-1-0.5-1.8-0.4-2.6,0.2c-1.4,0.9-2.4,2.1-3.1,3.5c-1,1.9-1.8,3.9-3.3,5.6c-0.4,0.4-0.1,0.9,0.1,1.2c1.3,2,1.6,3.7-0.5,5.4
		c-0.5,0.4-0.8,1.2-0.3,1.8c1.3,1.5,1.1,3.2,0.7,5c-0.6,3.2-1.2,6.4-0.6,9.7c0.4,2.2,0.9,4.4,1.5,6.5c0.3,1.1,0.3,2-0.4,3
		c-1.3,2.1-2.1,4.5-2.6,6.9c-1.2,5.7,0.1,11.1,2.3,16.3c0.4,0.9,0.8,1.1,1.7,0.8c0.7-0.2,1.5-0.3,2.2-0.4c2.6-0.4,5.1-0.8,7.5,1
		c0.4,0.3,1,0.4,1.6,0.6c2,0.6,4,0.3,6-0.3c0.3-0.1,0.8-0.4,0.8,0.3c-0.1,1.5,0.9,1.1,1.6,0.9c4.3-0.9,8.5-2.3,12.4-4.2
		C384.3,516.2,385.9,515.4,387.7,514.5z"/>
</g>
</svg>
